<?xml version="1.0" encoding="utf-8"?>
<!-- Generator: Adobe Illustrator 25.0.0, SVG Export Plug-In . SVG Version: 6.00 Build 0)  -->
<svg version="1.1" id="Layer_1" xmlns="http://www.w3.org/2000/svg" xmlns:xlink="http://www.w3.org/1999/xlink" x="0px" y="0px"
	 viewBox="0 0 2000 2000" enable-background="new 0 0 2000 2000" xml:space="preserve">
<linearGradient id="SVGID_1_" gradientUnits="userSpaceOnUse" x1="388.9439" y1="992.2325" x2="1611.2783" y2="1007.249">
	<stop  offset="0" style="stop-color:#00FFAF"/>
	<stop  offset="0.0629" style="stop-color:#00EDAD"/>
	<stop  offset="0.3201" style="stop-color:#00A6A7"/>
	<stop  offset="0.5515" style="stop-color:#006EA2"/>
	<stop  offset="0.7491" style="stop-color:#00469F"/>
	<stop  offset="0.905" style="stop-color:#002D9D"/>
	<stop  offset="1" style="stop-color:#00249C"/>
</linearGradient>
<circle fill="url(#SVGID_1_)" cx="1000.111" cy="999.741" r="611.212"/>
<linearGradient id="SVGID_2_" gradientUnits="userSpaceOnUse" x1="466.3923" y1="993.184" x2="1533.8298" y2="1006.2975">
	<stop  offset="0" style="stop-color:#00249C"/>
	<stop  offset="0.095" style="stop-color:#002D9D"/>
	<stop  offset="0.2509" style="stop-color:#00469F"/>
	<stop  offset="0.4485" style="stop-color:#006EA2"/>
	<stop  offset="0.6799" style="stop-color:#00A6A7"/>
	<stop  offset="0.9371" style="stop-color:#00EDAD"/>
	<stop  offset="1" style="stop-color:#00FFAF"/>
</linearGradient>
<circle fill="url(#SVGID_2_)" cx="1000.111" cy="999.741" r="533.758"/>
<g>
	<g>
		<path fill="#FFFFFF" d="M934.597,1016.407c0,14.985-3.131,28.892-9.39,41.717c-6.264,12.83-14.884,23.912-25.861,33.25
			c-10.983,9.343-24.067,16.678-39.254,22.013c-15.192,5.34-31.711,8.005-49.568,8.005H672.597V993.008h64.038v75.43h73.889
			c8.823,0,16.981-1.179,24.476-3.54c7.49-2.357,13.903-5.695,19.242-10.005c5.335-4.311,9.544-9.492,12.623-15.549
			c3.078-6.051,4.618-12.776,4.618-20.165c0-7.182-1.54-13.854-4.618-20.012c-3.079-6.158-7.389-11.44-12.931-15.855
			c-5.541-4.411-12.007-7.899-19.396-10.468c-7.389-2.564-15.394-3.848-24.014-3.848H672.597l40.64-53.569h97.288
			c18.059,0,34.684,2.463,49.876,7.389c15.187,4.926,28.271,11.854,39.254,20.781c10.978,8.928,19.551,19.603,25.708,32.019
			C931.519,988.034,934.597,1001.629,934.597,1016.407z"/>
		<path fill="#FFFFFF" d="M983.894,876.999L809.298,1121.39h75.434l96.662-136.696c0,0,74.748,109.555,95.748,136.696h74.824
			L983.894,876.999z"/>
		<path fill="#FFFFFF" d="M1178.7,912.038c49.538,0,86.745,8.428,111.618,25.278c24.869,16.855,37.307,43.45,37.307,79.792
			c0,36.546-12.387,63.248-37.154,80.098c-24.773,16.855-62.029,25.277-111.771,25.277c-49.947,0-87.254-8.422-111.923-25.277
			c-24.669-16.85-37.002-43.552-37.002-80.098c0-36.341,12.381-62.937,37.154-79.792
			C1091.698,920.466,1128.953,912.038,1178.7,912.038z M1178.7,1069.491c15.837,0,29.237-0.657,40.201-1.98
			c10.963-1.318,19.843-3.907,26.647-7.766c6.801-3.854,11.726-9.185,14.771-15.989c3.046-6.8,4.568-15.684,4.568-26.649
			c0-10.963-1.522-19.843-4.568-26.647c-3.046-6.8-7.97-12.078-14.771-15.837c-6.804-3.754-15.684-6.29-26.647-7.614
			c-10.965-1.318-24.364-1.979-40.201-1.979s-29.237,0.661-40.201,1.979c-10.963,1.323-19.848,3.86-26.647,7.614
			c-6.806,3.76-11.726,9.038-14.771,15.837c-3.046,6.804-4.568,15.684-4.568,26.647c0,10.964,1.522,19.849,4.568,26.649
			c3.046,6.804,7.966,12.135,14.771,15.989c6.8,3.858,15.684,6.448,26.647,7.766
			C1149.463,1068.835,1162.863,1069.491,1178.7,1069.491z"/>
	</g>
	<g>
		<path fill="#FFFFFF" d="M1000.111,1433.658c-115.904,0-224.87-45.135-306.826-127.092
			c-81.956-81.956-127.092-190.922-127.092-306.826s45.135-224.87,127.092-306.826s190.922-127.092,306.826-127.092
			s224.87,45.135,306.826,127.092c81.956,81.956,127.091,190.922,127.091,306.826s-45.135,224.87-127.091,306.826
			C1224.981,1388.523,1116.015,1433.658,1000.111,1433.658z M1000.111,614.24c-212.566,0-385.501,172.935-385.501,385.501
			s172.935,385.501,385.501,385.501s385.501-172.935,385.501-385.501S1212.677,614.24,1000.111,614.24z"/>
	</g>
</g>
<g>
</g>
<g>
</g>
<g>
</g>
<g>
</g>
<g>
</g>
<g>
</g>
</svg>
