<?xml version="1.0" encoding="utf-8"?>
<!-- Generator: Adobe Illustrator 25.0.0, SVG Export Plug-In . SVG Version: 6.00 Build 0)  -->
<svg version="1.1" id="Layer_1" xmlns="http://www.w3.org/2000/svg" xmlns:xlink="http://www.w3.org/1999/xlink" x="0px" y="0px"
	 viewBox="0 0 2000 2000" enable-background="new 0 0 2000 2000" xml:space="preserve">
<g>
	<linearGradient id="SVGID_1_" gradientUnits="userSpaceOnUse" x1="261.0546" y1="990.9221" x2="1738.9454" y2="1009.0779">
		<stop  offset="0.016" style="stop-color:#C0DC3B"/>
		<stop  offset="0.1913" style="stop-color:#A8D345"/>
		<stop  offset="0.5624" style="stop-color:#6ABD5E"/>
		<stop  offset="0.984" style="stop-color:#1DA17D"/>
	</linearGradient>
	<circle fill="url(#SVGID_1_)" cx="1000" cy="1000" r="739"/>
	<linearGradient id="SVGID_2_" gradientUnits="userSpaceOnUse" x1="354.6953" y1="992.0724" x2="1645.3047" y2="1007.9276">
		<stop  offset="0.016" style="stop-color:#1DA17D"/>
		<stop  offset="0.4376" style="stop-color:#6ABD5E"/>
		<stop  offset="0.8087" style="stop-color:#A8D345"/>
		<stop  offset="0.984" style="stop-color:#C0DC3B"/>
	</linearGradient>
	<circle fill="url(#SVGID_2_)" cx="1000" cy="1000" r="645.352"/>
	<g>
		<g>
			<path fill="#FFFFFF" d="M908.538,969.838c-2.374-4.767-5.016-9.323-7.945-13.688c-0.096-0.153-0.211-0.306-0.326-0.459
				c-6.586-9.725-14.607-18.398-24.026-26.074c-13.784-11.219-30.229-19.91-49.316-26.113c-19.068-6.184-39.954-9.266-62.64-9.266
				H642.07l-51.058,67.292h173.275c10.816,0,20.886,1.608,30.152,4.824c9.285,3.235,17.421,7.62,24.371,13.152
				c6.968,5.552,12.386,12.195,16.253,19.929c3.867,7.734,5.801,16.12,5.801,25.137c0,6.47-0.957,12.558-2.833,18.225
				c-0.211,0.613-0.421,1.225-0.651,1.819c-0.67,1.799-1.436,3.561-2.316,5.284c-3.637,7.16-8.519,13.324-14.665,18.493
				c-0.402,0.364-0.804,0.708-1.206,1.034c-0.134,0.115-0.287,0.23-0.421,0.325c-6.624,5.265-14.531,9.343-23.739,12.253
				c-9.419,2.967-19.661,4.441-30.746,4.441h-92.83V991.7h-80.444v161.271h173.275c3.829,0,7.6-0.096,11.314-0.306
				c18.13-0.938,35.111-4.193,50.943-9.744c19.087-6.7,35.512-15.928,49.315-27.664c7.217-6.145,13.631-12.884,19.202-20.235
				c1.895-2.451,3.676-4.977,5.36-7.581c2.91-4.441,5.552-9.094,7.926-13.937c7.868-16.12,11.793-33.598,11.793-52.417
				C920.14,1002.517,916.273,985.44,908.538,969.838z"/>
			<path fill="#FFFFFF" d="M1135.724,1073.714l-19.202-27.932l-64.325-93.519l-73.323-106.615L900.268,955.69l-0.115,0.153
				l-62.123,86.953l-1.091,1.512l-16.981,23.777l-1.187,1.665l-59.232,82.914h16.062c18.13-0.938,35.111-4.193,50.943-9.744
				c19.087-6.7,35.512-15.928,49.315-27.664c7.217-6.145,13.631-12.884,19.202-20.235l5.36-7.581l75.314-106.499
				c0,0,41.792,61.262,77.458,112.166c0.038,0.038,0.057,0.076,0.077,0.134c1.742,2.47,3.446,4.901,5.131,7.294
				c6.413,8.308,14.148,15.564,23.203,21.748c24.543,16.77,59.041,26.898,103.475,30.382h4.939L1135.724,1073.714z"/>
			<path fill="#FFFFFF" d="M1362.123,921.728c-31.243-21.173-77.994-31.76-140.232-31.76c-62.487,0-109.294,10.587-140.404,31.76
				c-12.31,8.366-22.169,18.646-29.597,30.841c-11.391,18.646-17.077,41.792-17.077,69.398c0,28.621,6.031,52.436,18.072,71.447
				c0.038,0.038,0.057,0.077,0.076,0.134c1.608,2.508,3.312,4.958,5.131,7.294c6.413,8.309,14.147,15.564,23.203,21.748
				c24.543,16.77,59.041,26.898,103.475,30.382c11.697,0.919,24.064,1.378,37.121,1.378c62.506,0,109.295-10.587,140.423-31.76
				c31.109-21.174,46.674-54.714,46.674-100.622C1408.989,976.308,1393.367,942.901,1362.123,921.728z M1324.428,1055.451
				c-3.81,8.538-10.012,15.239-18.551,20.082c-8.538,4.844-19.699,8.098-33.464,9.745c-13.784,1.665-30.612,2.489-50.522,2.489
				c-19.891,0-36.719-0.823-50.503-2.489c-13.765-1.647-24.926-4.901-33.464-9.745c-0.861-0.479-1.704-0.995-2.508-1.512
				c-7.275-4.69-12.616-10.893-16.043-18.57c-1.264-2.833-2.316-5.954-3.159-9.361c-1.723-6.873-2.584-14.913-2.584-24.122
				c0-13.765,1.914-24.926,5.743-33.483c3.81-8.538,9.993-15.162,18.551-19.891c8.538-4.709,19.7-7.907,33.464-9.553
				c13.784-1.666,30.612-2.489,50.503-2.489c19.91,0,36.738,0.823,50.522,2.489c13.765,1.646,24.926,4.844,33.464,9.553
				c8.538,4.729,14.741,11.353,18.551,19.891c3.829,8.557,5.743,19.719,5.743,33.483
				C1330.172,1035.732,1328.257,1046.893,1324.428,1055.451z"/>
		</g>
		<g>
			<path fill="#FFFFFF" d="M1000.001,1545.136c-145.611,0-282.508-56.705-385.47-159.667
				c-102.963-102.963-159.667-239.859-159.667-385.47s56.705-282.507,159.667-385.47
				c102.962-102.961,239.859-159.666,385.47-159.666c145.61,0,282.505,56.705,385.468,159.666
				c102.963,102.963,159.667,239.859,159.667,385.47s-56.705,282.507-159.667,385.47S1145.611,1545.136,1000.001,1545.136z
				 M1000.001,515.742c-267.022,0-484.259,217.237-484.259,484.258s217.237,484.259,484.259,484.259
				c267.021,0,484.258-217.238,484.258-484.259S1267.022,515.742,1000.001,515.742z"/>
		</g>
	</g>
</g>
<g>
</g>
<g>
</g>
<g>
</g>
<g>
</g>
<g>
</g>
<g>
</g>
</svg>
